<svg xmlns="http://www.w3.org/2000/svg" width="1536" height="360" viewBox="0 0 1536 360" preserveAspectRatio="none"><rect y="0.0" width="1536" height="2.1" fill="#a8a3a1"/><rect x="-1536" y="0.0" width="420" height="2.1" fill="#695f4d" opacity=".16"/><rect x="0" y="0.0" width="420" height="2.1" fill="#695f4d" opacity=".16"/><rect y="2.0" width="1536" height="2.1" fill="#cfd7e7"/><rect x="-220" y="2.0" width="550" height="2.1" fill="#979881" opacity=".16"/><rect x="1316" y="2.0" width="550" height="2.1" fill="#979881" opacity=".16"/><rect y="4.0" width="1536" height="2.1" fill="#cfd7e7"/><rect x="-714" y="4.0" width="680" height="2.1" fill="#c2d1e9" opacity=".16"/><rect x="822" y="4.0" width="680" height="2.1" fill="#c2d1e9" opacity=".16"/><rect y="6.0" width="1536" height="2.1" fill="#cfd7e7"/><rect x="-466" y="6.0" width="810" height="2.1" fill="#696057" opacity=".16"/><rect x="1070" y="6.0" width="810" height="2.1" fill="#696057" opacity=".16"/><rect y="8.0" width="1536" height="2.1" fill="#8b7752"/><rect x="-1132" y="8.0" width="940" height="2.1" fill="#655c47" opacity=".16"/><rect x="404" y="8.0" width="940" height="2.1" fill="#655c47" opacity=".16"/><rect y="10.0" width="1536" height="2.1" fill="#cfd7e7"/><rect x="-776" y="10.0" width="1070" height="2.1" fill="#877e54" opacity=".16"/><rect x="760" y="10.0" width="1070" height="2.1" fill="#877e54" opacity=".16"/><rect y="12.0" width="1536" height="2.1" fill="#cfd7e7"/><rect x="-302" y="12.0" width="420" height="2.1" fill="#cad5e9" opacity=".16"/><rect x="1234" y="12.0" width="420" height="2.1" fill="#cad5e9" opacity=".16"/><rect y="14.0" width="1536" height="2.1" fill="#cfd7e7"/><rect x="-174" y="14.0" width="550" height="2.1" fill="#7c726b" opacity=".16"/><rect x="1362" y="14.0" width="550" height="2.1" fill="#7c726b" opacity=".16"/><rect y="16.0" width="1536" height="2.1" fill="#92867d"/><rect x="-1336" y="16.0" width="680" height="2.1" fill="#635c46" opacity=".16"/><rect x="200" y="16.0" width="680" height="2.1" fill="#635c46" opacity=".16"/><rect y="18.0" width="1536" height="2.1" fill="#cfd7e7"/><rect x="-1508" y="18.0" width="810" height="2.1" fill="#857858" opacity=".16"/><rect x="28" y="18.0" width="810" height="2.1" fill="#857858" opacity=".16"/><rect y="20.0" width="1536" height="2.1" fill="#cfd7e7"/><rect x="-1314" y="20.0" width="940" height="2.1" fill="#cfd7ea" opacity=".16"/><rect x="222" y="20.0" width="940" height="2.1" fill="#cfd7ea" opacity=".16"/><rect y="22.0" width="1536" height="2.1" fill="#cfd7e7"/><rect x="-266" y="22.0" width="1070" height="2.1" fill="#726a66" opacity=".16"/><rect x="1270" y="22.0" width="1070" height="2.1" fill="#726a66" opacity=".16"/><rect y="24.0" width="1536" height="2.1" fill="#92867d"/><rect x="-612" y="24.0" width="420" height="2.1" fill="#5b5133" opacity=".16"/><rect x="924" y="24.0" width="420" height="2.1" fill="#5b5133" opacity=".16"/><rect y="26.0" width="1536" height="2.1" fill="#cfd7e7"/><rect x="-1120" y="26.0" width="550" height="2.1" fill="#8a7f5d" opacity=".16"/><rect x="416" y="26.0" width="550" height="2.1" fill="#8a7f5d" opacity=".16"/><rect y="28.0" width="1536" height="2.1" fill="#cfd7e7"/><rect x="-1094" y="28.0" width="680" height="2.1" fill="#d2daec" opacity=".16"/><rect x="442" y="28.0" width="680" height="2.1" fill="#d2daec" opacity=".16"/><rect y="30.0" width="1536" height="2.1" fill="#cfd7e7"/><rect x="-86" y="30.0" width="810" height="2.1" fill="#897e77" opacity=".16"/><rect x="1450" y="30.0" width="810" height="2.1" fill="#897e77" opacity=".16"/><rect y="32.0" width="1536" height="2.1" fill="#c2bdbc"/><rect x="-1520" y="32.0" width="940" height="2.1" fill="#5a4d28" opacity=".16"/><rect x="16" y="32.0" width="940" height="2.1" fill="#5a4d28" opacity=".16"/><rect y="34.0" width="1536" height="2.1" fill="#cfd7e7"/><rect x="-1292" y="34.0" width="1070" height="2.1" fill="#857a48" opacity=".16"/><rect x="244" y="34.0" width="1070" height="2.1" fill="#857a48" opacity=".16"/><rect y="36.0" width="1536" height="2.1" fill="#cfd7e7"/><rect x="-1306" y="36.0" width="420" height="2.1" fill="#d0d9eb" opacity=".16"/><rect x="230" y="36.0" width="420" height="2.1" fill="#d0d9eb" opacity=".16"/><rect y="38.0" width="1536" height="2.1" fill="#cfd7e7"/><rect x="-1474" y="38.0" width="550" height="2.1" fill="#837569" opacity=".16"/><rect x="62" y="38.0" width="550" height="2.1" fill="#837569" opacity=".16"/><rect y="40.0" width="1536" height="2.1" fill="#8b7752"/><rect x="-252" y="40.0" width="680" height="2.1" fill="#5c4b32" opacity=".16"/><rect x="1284" y="40.0" width="680" height="2.1" fill="#5c4b32" opacity=".16"/><rect y="42.0" width="1536" height="2.1" fill="#cfd7e7"/><rect x="-216" y="42.0" width="810" height="2.1" fill="#787145" opacity=".16"/><rect x="1320" y="42.0" width="810" height="2.1" fill="#787145" opacity=".16"/><rect y="44.0" width="1536" height="2.1" fill="#cfd7e7"/><rect x="-1406" y="44.0" width="940" height="2.1" fill="#ccd7e9" opacity=".16"/><rect x="130" y="44.0" width="940" height="2.1" fill="#ccd7e9" opacity=".16"/><rect y="46.0" width="1536" height="2.1" fill="#cfd7e7"/><rect x="-766" y="46.0" width="1070" height="2.1" fill="#66605d" opacity=".16"/><rect x="770" y="46.0" width="1070" height="2.1" fill="#66605d" opacity=".16"/><rect y="48.0" width="1536" height="2.1" fill="#8b7752"/><rect x="-40" y="48.0" width="420" height="2.1" fill="#5c4e36" opacity=".16"/><rect x="1496" y="48.0" width="420" height="2.1" fill="#5c4e36" opacity=".16"/><rect y="50.0" width="1536" height="2.1" fill="#cfd7e7"/><rect x="-628" y="50.0" width="550" height="2.1" fill="#787042" opacity=".16"/><rect x="908" y="50.0" width="550" height="2.1" fill="#787042" opacity=".16"/><rect y="52.0" width="1536" height="2.1" fill="#cfd7e7"/><rect x="-1394" y="52.0" width="680" height="2.1" fill="#c5d3ea" opacity=".16"/><rect x="142" y="52.0" width="680" height="2.1" fill="#c5d3ea" opacity=".16"/><rect y="54.0" width="1536" height="2.1" fill="#cfd7e7"/><rect x="-538" y="54.0" width="810" height="2.1" fill="#685b4c" opacity=".16"/><rect x="998" y="54.0" width="810" height="2.1" fill="#685b4c" opacity=".16"/><rect y="56.0" width="1536" height="2.1" fill="#7b6839"/><rect x="-756" y="56.0" width="940" height="2.1" fill="#5c4c34" opacity=".16"/><rect x="780" y="56.0" width="940" height="2.1" fill="#5c4c34" opacity=".16"/><rect y="58.0" width="1536" height="2.1" fill="#cfd7e7"/><rect x="-400" y="58.0" width="1070" height="2.1" fill="#766a34" opacity=".16"/><rect x="1136" y="58.0" width="1070" height="2.1" fill="#766a34" opacity=".16"/><rect y="60.0" width="1536" height="2.1" fill="#cfd7e7"/><rect x="-1174" y="60.0" width="420" height="2.1" fill="#c8d4e9" opacity=".16"/><rect x="362" y="60.0" width="420" height="2.1" fill="#c8d4e9" opacity=".16"/><rect y="62.0" width="1536" height="2.1" fill="#cfd7e7"/><rect x="-710" y="62.0" width="550" height="2.1" fill="#615345" opacity=".16"/><rect x="826" y="62.0" width="550" height="2.1" fill="#615345" opacity=".16"/><rect y="64.0" width="1536" height="2.1" fill="#8b7752"/><rect x="-1504" y="64.0" width="680" height="2.1" fill="#463d1f" opacity=".16"/><rect x="32" y="64.0" width="680" height="2.1" fill="#463d1f" opacity=".16"/><rect y="66.0" width="1536" height="2.1" fill="#cfd7e7"/><rect x="-1020" y="66.0" width="810" height="2.1" fill="#7e6f3e" opacity=".16"/><rect x="516" y="66.0" width="810" height="2.1" fill="#7e6f3e" opacity=".16"/><rect y="68.0" width="1536" height="2.1" fill="#cfd7e7"/><rect x="-682" y="68.0" width="940" height="2.1" fill="#d0d9eb" opacity=".16"/><rect x="854" y="68.0" width="940" height="2.1" fill="#d0d9eb" opacity=".16"/><rect y="70.0" width="1536" height="2.1" fill="#cfd7e7"/><rect x="-50" y="70.0" width="1070" height="2.1" fill="#6f6761" opacity=".16"/><rect x="1486" y="70.0" width="1070" height="2.1" fill="#6f6761" opacity=".16"/><rect y="72.0" width="1536" height="2.1" fill="#7b6839"/><rect x="-1356" y="72.0" width="420" height="2.1" fill="#493e29" opacity=".16"/><rect x="180" y="72.0" width="420" height="2.1" fill="#493e29" opacity=".16"/><rect y="74.0" width="1536" height="2.1" fill="#615140"/><rect x="-936" y="74.0" width="550" height="2.1" fill="#7a6947" opacity=".16"/><rect x="600" y="74.0" width="550" height="2.1" fill="#7a6947" opacity=".16"/><rect y="76.0" width="1536" height="2.1" fill="#a8a3a1"/><rect x="-1486" y="76.0" width="680" height="2.1" fill="#9da5bb" opacity=".16"/><rect x="50" y="76.0" width="680" height="2.1" fill="#9da5bb" opacity=".16"/><rect y="78.0" width="1536" height="2.1" fill="#cfd7e7"/><rect x="-1358" y="78.0" width="810" height="2.1" fill="#594f43" opacity=".16"/><rect x="178" y="78.0" width="810" height="2.1" fill="#594f43" opacity=".16"/><rect y="80.0" width="1536" height="2.1" fill="#a8a3a1"/><rect x="-792" y="80.0" width="940" height="2.1" fill="#5e4e32" opacity=".16"/><rect x="744" y="80.0" width="940" height="2.1" fill="#5e4e32" opacity=".16"/><rect y="82.0" width="1536" height="2.1" fill="#cfd7e7"/><rect x="-708" y="82.0" width="1070" height="2.1" fill="#7f6b3f" opacity=".16"/><rect x="828" y="82.0" width="1070" height="2.1" fill="#7f6b3f" opacity=".16"/><rect y="84.0" width="1536" height="2.1" fill="#cfd7e7"/><rect x="-1090" y="84.0" width="420" height="2.1" fill="#d7deec" opacity=".16"/><rect x="446" y="84.0" width="420" height="2.1" fill="#d7deec" opacity=".16"/><rect y="86.0" width="1536" height="2.1" fill="#cfd7e7"/><rect x="-1386" y="86.0" width="550" height="2.1" fill="#665a50" opacity=".16"/><rect x="150" y="86.0" width="550" height="2.1" fill="#665a50" opacity=".16"/><rect y="88.0" width="1536" height="2.1" fill="#7b6839"/><rect x="-836" y="88.0" width="680" height="2.1" fill="#473a2b" opacity=".16"/><rect x="700" y="88.0" width="680" height="2.1" fill="#473a2b" opacity=".16"/><rect y="90.0" width="1536" height="2.1" fill="#cfd7e7"/><rect x="-896" y="90.0" width="810" height="2.1" fill="#836e44" opacity=".16"/><rect x="640" y="90.0" width="810" height="2.1" fill="#836e44" opacity=".16"/><rect y="92.0" width="1536" height="2.1" fill="#cfd7e7"/><rect x="-422" y="92.0" width="940" height="2.1" fill="#d2daeb" opacity=".16"/><rect x="1114" y="92.0" width="940" height="2.1" fill="#d2daeb" opacity=".16"/><rect y="94.0" width="1536" height="2.1" fill="#cfd7e7"/><rect x="-1334" y="94.0" width="1070" height="2.1" fill="#7a6b5a" opacity=".16"/><rect x="202" y="94.0" width="1070" height="2.1" fill="#7a6b5a" opacity=".16"/><rect y="96.0" width="1536" height="2.1" fill="#8b7752"/><rect x="-1488" y="96.0" width="420" height="2.1" fill="#4f412d" opacity=".16"/><rect x="48" y="96.0" width="420" height="2.1" fill="#4f412d" opacity=".16"/><rect y="98.0" width="1536" height="2.1" fill="#cfd7e7"/><rect x="-1132" y="98.0" width="550" height="2.1" fill="#8a7345" opacity=".16"/><rect x="404" y="98.0" width="550" height="2.1" fill="#8a7345" opacity=".16"/><rect y="100.0" width="1536" height="2.1" fill="#cfd7e7"/><rect x="-122" y="100.0" width="680" height="2.1" fill="#cfd8e9" opacity=".16"/><rect x="1414" y="100.0" width="680" height="2.1" fill="#cfd8e9" opacity=".16"/><rect y="102.0" width="1536" height="2.1" fill="#cfd7e7"/><rect x="-1122" y="102.0" width="810" height="2.1" fill="#5b4b3a" opacity=".16"/><rect x="414" y="102.0" width="810" height="2.1" fill="#5b4b3a" opacity=".16"/><rect y="104.0" width="1536" height="2.1" fill="#7b6839"/><rect x="-476" y="104.0" width="940" height="2.1" fill="#5d4f32" opacity=".16"/><rect x="1060" y="104.0" width="940" height="2.1" fill="#5d4f32" opacity=".16"/><rect y="106.0" width="1536" height="2.1" fill="#cfd7e7"/><rect x="-696" y="106.0" width="1070" height="2.1" fill="#7e6943" opacity=".16"/><rect x="840" y="106.0" width="1070" height="2.1" fill="#7e6943" opacity=".16"/><rect y="108.0" width="1536" height="2.1" fill="#615140"/><rect x="-1438" y="108.0" width="420" height="2.1" fill="#c0c7da" opacity=".16"/><rect x="98" y="108.0" width="420" height="2.1" fill="#c0c7da" opacity=".16"/><rect y="110.0" width="1536" height="2.1" fill="#4f4234"/><rect x="-606" y="110.0" width="550" height="2.1" fill="#665848" opacity=".16"/><rect x="930" y="110.0" width="550" height="2.1" fill="#665848" opacity=".16"/><rect y="112.0" width="1536" height="2.1" fill="#30271c"/><rect x="-520" y="112.0" width="680" height="2.1" fill="#3c321e" opacity=".16"/><rect x="1016" y="112.0" width="680" height="2.1" fill="#3c321e" opacity=".16"/><rect y="114.0" width="1536" height="2.1" fill="#cfd7e7"/><rect x="-1172" y="114.0" width="810" height="2.1" fill="#826e39" opacity=".16"/><rect x="364" y="114.0" width="810" height="2.1" fill="#826e39" opacity=".16"/><rect y="116.0" width="1536" height="2.1" fill="#cfd7e7"/><rect x="-18" y="116.0" width="940" height="2.1" fill="#d2d9e9" opacity=".16"/><rect x="1518" y="116.0" width="940" height="2.1" fill="#d2d9e9" opacity=".16"/><rect y="118.0" width="1536" height="2.1" fill="#cfd7e7"/><rect x="-1082" y="118.0" width="1070" height="2.1" fill="#75685d" opacity=".16"/><rect x="454" y="118.0" width="1070" height="2.1" fill="#75685d" opacity=".16"/><rect y="120.0" width="1536" height="2.1" fill="#7b6839"/><rect x="-1492" y="120.0" width="420" height="2.1" fill="#797369" opacity=".16"/><rect x="44" y="120.0" width="420" height="2.1" fill="#797369" opacity=".16"/><rect y="122.0" width="1536" height="2.1" fill="#7b6839"/><rect x="-1392" y="122.0" width="550" height="2.1" fill="#8f7743" opacity=".16"/><rect x="144" y="122.0" width="550" height="2.1" fill="#8f7743" opacity=".16"/><rect y="124.0" width="1536" height="2.1" fill="#7b6839"/><rect x="-630" y="124.0" width="680" height="2.1" fill="#c9d3e2" opacity=".16"/><rect x="906" y="124.0" width="680" height="2.1" fill="#c9d3e2" opacity=".16"/><rect y="126.0" width="1536" height="2.1" fill="#7b6839"/><rect x="-870" y="126.0" width="810" height="2.1" fill="#5b4e42" opacity=".16"/><rect x="666" y="126.0" width="810" height="2.1" fill="#5b4e42" opacity=".16"/><rect y="128.0" width="1536" height="2.1" fill="#cfd7e7"/><rect x="-960" y="128.0" width="940" height="2.1" fill="#544920" opacity=".16"/><rect x="576" y="128.0" width="940" height="2.1" fill="#544920" opacity=".16"/><rect y="130.0" width="1536" height="2.1" fill="#7b6839"/><rect x="-1308" y="130.0" width="1070" height="2.1" fill="#8c7349" opacity=".16"/><rect x="228" y="130.0" width="1070" height="2.1" fill="#8c7349" opacity=".16"/><rect y="132.0" width="1536" height="2.1" fill="#7b6839"/><rect x="-1290" y="132.0" width="420" height="2.1" fill="#c3c8d0" opacity=".16"/><rect x="246" y="132.0" width="420" height="2.1" fill="#c3c8d0" opacity=".16"/><rect y="134.0" width="1536" height="2.1" fill="#7b6839"/><rect x="-18" y="134.0" width="550" height="2.1" fill="#756656" opacity=".16"/><rect x="1518" y="134.0" width="550" height="2.1" fill="#756656" opacity=".16"/><rect y="136.0" width="1536" height="2.1" fill="#6b5c25"/><rect x="-428" y="136.0" width="680" height="2.1" fill="#665822" opacity=".16"/><rect x="1108" y="136.0" width="680" height="2.1" fill="#665822" opacity=".16"/><rect y="138.0" width="1536" height="2.1" fill="#7b6839"/><rect x="-584" y="138.0" width="810" height="2.1" fill="#755e40" opacity=".16"/><rect x="952" y="138.0" width="810" height="2.1" fill="#755e40" opacity=".16"/><rect y="140.0" width="1536" height="2.1" fill="#7b6839"/><rect x="-110" y="140.0" width="940" height="2.1" fill="#bec4cd" opacity=".16"/><rect x="1426" y="140.0" width="940" height="2.1" fill="#bec4cd" opacity=".16"/><rect y="142.0" width="1536" height="2.1" fill="#615140"/><rect x="-1518" y="142.0" width="1070" height="2.1" fill="#6c5c42" opacity=".16"/><rect x="18" y="142.0" width="1070" height="2.1" fill="#6c5c42" opacity=".16"/><rect y="144.0" width="1536" height="2.1" fill="#6b5c25"/><rect x="-1400" y="144.0" width="420" height="2.1" fill="#574a28" opacity=".16"/><rect x="136" y="144.0" width="420" height="2.1" fill="#574a28" opacity=".16"/><rect y="146.0" width="1536" height="2.1" fill="#7b6839"/><rect x="-292" y="146.0" width="550" height="2.1" fill="#5c4a2f" opacity=".16"/><rect x="1244" y="146.0" width="550" height="2.1" fill="#5c4a2f" opacity=".16"/><rect y="148.0" width="1536" height="2.1" fill="#7b6839"/><rect x="-1506" y="148.0" width="680" height="2.1" fill="#bbc1c8" opacity=".16"/><rect x="30" y="148.0" width="680" height="2.1" fill="#bbc1c8" opacity=".16"/><rect y="150.0" width="1536" height="2.1" fill="#7b6839"/><rect x="-202" y="150.0" width="810" height="2.1" fill="#524633" opacity=".16"/><rect x="1334" y="150.0" width="810" height="2.1" fill="#524633" opacity=".16"/><rect y="152.0" width="1536" height="2.1" fill="#615140"/><rect x="-1188" y="152.0" width="940" height="2.1" fill="#57452e" opacity=".16"/><rect x="348" y="152.0" width="940" height="2.1" fill="#57452e" opacity=".16"/><rect y="154.0" width="1536" height="2.1" fill="#7b6839"/><rect x="-288" y="154.0" width="1070" height="2.1" fill="#63532c" opacity=".16"/><rect x="1248" y="154.0" width="1070" height="2.1" fill="#63532c" opacity=".16"/><rect y="156.0" width="1536" height="2.1" fill="#7b6839"/><rect x="-1286" y="156.0" width="420" height="2.1" fill="#bbc1c5" opacity=".16"/><rect x="250" y="156.0" width="420" height="2.1" fill="#bbc1c5" opacity=".16"/><rect y="158.0" width="1536" height="2.1" fill="#7b6839"/><rect x="-1046" y="158.0" width="550" height="2.1" fill="#4d3f2b" opacity=".16"/><rect x="490" y="158.0" width="550" height="2.1" fill="#4d3f2b" opacity=".16"/><rect y="160.0" width="1536" height="2.1" fill="#413524"/><rect x="-432" y="160.0" width="680" height="2.1" fill="#4d4028" opacity=".16"/><rect x="1104" y="160.0" width="680" height="2.1" fill="#4d4028" opacity=".16"/><rect y="162.0" width="1536" height="2.1" fill="#7b6839"/><rect x="-76" y="162.0" width="810" height="2.1" fill="#62522c" opacity=".16"/><rect x="1460" y="162.0" width="810" height="2.1" fill="#62522c" opacity=".16"/><rect y="164.0" width="1536" height="2.1" fill="#7b6839"/><rect x="-1242" y="164.0" width="940" height="2.1" fill="#b2b6b4" opacity=".16"/><rect x="294" y="164.0" width="940" height="2.1" fill="#b2b6b4" opacity=".16"/><rect y="166.0" width="1536" height="2.1" fill="#6b5c25"/><rect x="-1026" y="166.0" width="1070" height="2.1" fill="#5f4f3a" opacity=".16"/><rect x="510" y="166.0" width="1070" height="2.1" fill="#5f4f3a" opacity=".16"/><rect y="168.0" width="1536" height="2.1" fill="#413524"/><rect x="-316" y="168.0" width="420" height="2.1" fill="#4a3c25" opacity=".16"/><rect x="1220" y="168.0" width="420" height="2.1" fill="#4a3c25" opacity=".16"/><rect y="170.0" width="1536" height="2.1" fill="#7b6839"/><rect x="-1304" y="170.0" width="550" height="2.1" fill="#5e5329" opacity=".16"/><rect x="232" y="170.0" width="550" height="2.1" fill="#5e5329" opacity=".16"/><rect y="172.0" width="1536" height="2.1" fill="#7b6839"/><rect x="-62" y="172.0" width="680" height="2.1" fill="#aeafab" opacity=".16"/><rect x="1474" y="172.0" width="680" height="2.1" fill="#aeafab" opacity=".16"/><rect y="174.0" width="1536" height="2.1" fill="#6b5c25"/><rect x="-958" y="174.0" width="810" height="2.1" fill="#554939" opacity=".16"/><rect x="578" y="174.0" width="810" height="2.1" fill="#554939" opacity=".16"/><rect y="176.0" width="1536" height="2.1" fill="#7b6839"/><rect x="-1128" y="176.0" width="940" height="2.1" fill="#493928" opacity=".16"/><rect x="408" y="176.0" width="940" height="2.1" fill="#493928" opacity=".16"/><rect y="178.0" width="1536" height="2.1" fill="#6b5c25"/><rect x="-1332" y="178.0" width="1070" height="2.1" fill="#60561e" opacity=".16"/><rect x="204" y="178.0" width="1070" height="2.1" fill="#60561e" opacity=".16"/><rect y="180.0" width="1536" height="2.1" fill="#6b5c25"/><rect x="-434" y="180.0" width="420" height="2.1" fill="#a6a491" opacity=".16"/><rect x="1102" y="180.0" width="420" height="2.1" fill="#a6a491" opacity=".16"/><rect y="182.0" width="1536" height="2.1" fill="#6b5c25"/><rect x="-474" y="182.0" width="550" height="2.1" fill="#51442e" opacity=".16"/><rect x="1062" y="182.0" width="550" height="2.1" fill="#51442e" opacity=".16"/><rect y="184.0" width="1536" height="2.1" fill="#7b6839"/><rect x="-52" y="184.0" width="680" height="2.1" fill="#4b3b28" opacity=".16"/><rect x="1484" y="184.0" width="680" height="2.1" fill="#4b3b28" opacity=".16"/><rect y="186.0" width="1536" height="2.1" fill="#6b5c25"/><rect x="-848" y="186.0" width="810" height="2.1" fill="#665923" opacity=".16"/><rect x="688" y="186.0" width="810" height="2.1" fill="#665923" opacity=".16"/><rect y="188.0" width="1536" height="2.1" fill="#6b5c25"/><rect x="-470" y="188.0" width="940" height="2.1" fill="#96938c" opacity=".16"/><rect x="1066" y="188.0" width="940" height="2.1" fill="#96938c" opacity=".16"/><rect y="190.0" width="1536" height="2.1" fill="#6b5c25"/><rect x="-1414" y="190.0" width="1070" height="2.1" fill="#594933" opacity=".16"/><rect x="122" y="190.0" width="1070" height="2.1" fill="#594933" opacity=".16"/><rect y="192.0" width="1536" height="2.1" fill="#574a1e"/><rect x="-416" y="192.0" width="420" height="2.1" fill="#423622" opacity=".16"/><rect x="1120" y="192.0" width="420" height="2.1" fill="#423622" opacity=".16"/><rect y="194.0" width="1536" height="2.1" fill="#6b5c25"/><rect x="-1468" y="194.0" width="550" height="2.1" fill="#685d19" opacity=".16"/><rect x="68" y="194.0" width="550" height="2.1" fill="#685d19" opacity=".16"/><rect y="196.0" width="1536" height="2.1" fill="#6b5c25"/><rect x="-1002" y="196.0" width="680" height="2.1" fill="#a8a494" opacity=".16"/><rect x="534" y="196.0" width="680" height="2.1" fill="#a8a494" opacity=".16"/><rect y="198.0" width="1536" height="2.1" fill="#6b5c25"/><rect x="-1266" y="198.0" width="810" height="2.1" fill="#4d4222" opacity=".16"/><rect x="270" y="198.0" width="810" height="2.1" fill="#4d4222" opacity=".16"/><rect y="200.0" width="1536" height="2.1" fill="#7b6839"/><rect x="-140" y="200.0" width="940" height="2.1" fill="#3a311e" opacity=".16"/><rect x="1396" y="200.0" width="940" height="2.1" fill="#3a311e" opacity=".16"/><rect y="202.0" width="1536" height="2.1" fill="#574a1e"/><rect x="-1128" y="202.0" width="1070" height="2.1" fill="#544919" opacity=".16"/><rect x="408" y="202.0" width="1070" height="2.1" fill="#544919" opacity=".16"/><rect y="204.0" width="1536" height="2.1" fill="#6b5c25"/><rect x="-526" y="204.0" width="420" height="2.1" fill="#aaa18b" opacity=".16"/><rect x="1010" y="204.0" width="420" height="2.1" fill="#aaa18b" opacity=".16"/><rect y="206.0" width="1536" height="2.1" fill="#6b5c25"/><rect x="-270" y="206.0" width="550" height="2.1" fill="#493c28" opacity=".16"/><rect x="1266" y="206.0" width="550" height="2.1" fill="#493c28" opacity=".16"/><rect y="208.0" width="1536" height="2.1" fill="#574a1e"/><rect x="-344" y="208.0" width="680" height="2.1" fill="#40371e" opacity=".16"/><rect x="1192" y="208.0" width="680" height="2.1" fill="#40371e" opacity=".16"/><rect y="210.0" width="1536" height="2.1" fill="#6b5c25"/><rect x="-132" y="210.0" width="810" height="2.1" fill="#5e511f" opacity=".16"/><rect x="1404" y="210.0" width="810" height="2.1" fill="#5e511f" opacity=".16"/><rect y="212.0" width="1536" height="2.1" fill="#6b5c25"/><rect x="-1282" y="212.0" width="940" height="2.1" fill="#685b37" opacity=".16"/><rect x="254" y="212.0" width="940" height="2.1" fill="#685b37" opacity=".16"/><rect y="214.0" width="1536" height="2.1" fill="#6b5c25"/><rect x="-1194" y="214.0" width="1070" height="2.1" fill="#433621" opacity=".16"/><rect x="342" y="214.0" width="1070" height="2.1" fill="#433621" opacity=".16"/><rect y="216.0" width="1536" height="2.1" fill="#413524"/><rect x="-900" y="216.0" width="420" height="2.1" fill="#443a1d" opacity=".16"/><rect x="636" y="216.0" width="420" height="2.1" fill="#443a1d" opacity=".16"/><rect y="218.0" width="1536" height="2.1" fill="#6b5c25"/><rect x="-704" y="218.0" width="550" height="2.1" fill="#625718" opacity=".16"/><rect x="832" y="218.0" width="550" height="2.1" fill="#625718" opacity=".16"/><rect y="220.0" width="1536" height="2.1" fill="#6b5c25"/><rect x="-870" y="220.0" width="680" height="2.1" fill="#76683d" opacity=".16"/><rect x="666" y="220.0" width="680" height="2.1" fill="#76683d" opacity=".16"/><rect y="222.0" width="1536" height="2.1" fill="#6b5c25"/><rect x="-374" y="222.0" width="810" height="2.1" fill="#433827" opacity=".16"/><rect x="1162" y="222.0" width="810" height="2.1" fill="#433827" opacity=".16"/><rect y="224.0" width="1536" height="2.1" fill="#574a1e"/><rect x="-400" y="224.0" width="940" height="2.1" fill="#504224" opacity=".16"/><rect x="1136" y="224.0" width="940" height="2.1" fill="#504224" opacity=".16"/><rect y="226.0" width="1536" height="2.1" fill="#574a1e"/><rect x="-812" y="226.0" width="1070" height="2.1" fill="#61561d" opacity=".16"/><rect x="724" y="226.0" width="1070" height="2.1" fill="#61561d" opacity=".16"/><rect y="228.0" width="1536" height="2.1" fill="#574a1e"/><rect x="-826" y="228.0" width="420" height="2.1" fill="#6a5b2f" opacity=".16"/><rect x="710" y="228.0" width="420" height="2.1" fill="#6a5b2f" opacity=".16"/><rect y="230.0" width="1536" height="2.1" fill="#574a1e"/><rect x="-34" y="230.0" width="550" height="2.1" fill="#31271d" opacity=".16"/><rect x="1502" y="230.0" width="550" height="2.1" fill="#31271d" opacity=".16"/><rect y="232.0" width="1536" height="2.1" fill="#6b5c25"/><rect x="-540" y="232.0" width="680" height="2.1" fill="#5e4c37" opacity=".16"/><rect x="996" y="232.0" width="680" height="2.1" fill="#5e4c37" opacity=".16"/><rect y="234.0" width="1536" height="2.1" fill="#574a1e"/><rect x="-1400" y="234.0" width="810" height="2.1" fill="#574d13" opacity=".16"/><rect x="136" y="234.0" width="810" height="2.1" fill="#574d13" opacity=".16"/><rect y="236.0" width="1536" height="2.1" fill="#574a1e"/><rect x="-94" y="236.0" width="940" height="2.1" fill="#655936" opacity=".16"/><rect x="1442" y="236.0" width="940" height="2.1" fill="#655936" opacity=".16"/><rect y="238.0" width="1536" height="2.1" fill="#574a1e"/><rect x="-670" y="238.0" width="1070" height="2.1" fill="#3c3121" opacity=".16"/><rect x="866" y="238.0" width="1070" height="2.1" fill="#3c3121" opacity=".16"/><rect y="240.0" width="1536" height="2.1" fill="#413524"/><rect x="-72" y="240.0" width="420" height="2.1" fill="#5f4b36" opacity=".16"/><rect x="1464" y="240.0" width="420" height="2.1" fill="#5f4b36" opacity=".16"/><rect y="242.0" width="1536" height="2.1" fill="#413524"/><rect x="-1236" y="242.0" width="550" height="2.1" fill="#4e4515" opacity=".16"/><rect x="300" y="242.0" width="550" height="2.1" fill="#4e4515" opacity=".16"/><rect y="244.0" width="1536" height="2.1" fill="#413524"/><rect x="-338" y="244.0" width="680" height="2.1" fill="#837872" opacity=".16"/><rect x="1198" y="244.0" width="680" height="2.1" fill="#837872" opacity=".16"/><rect y="246.0" width="1536" height="2.1" fill="#413524"/><rect x="-634" y="246.0" width="810" height="2.1" fill="#52422a" opacity=".16"/><rect x="902" y="246.0" width="810" height="2.1" fill="#52422a" opacity=".16"/><rect y="248.0" width="1536" height="2.1" fill="#1e1812"/><rect x="-276" y="248.0" width="940" height="2.1" fill="#473a29" opacity=".16"/><rect x="1260" y="248.0" width="940" height="2.1" fill="#473a29" opacity=".16"/><rect y="250.0" width="1536" height="2.1" fill="#30271c"/><rect x="-176" y="250.0" width="1070" height="2.1" fill="#322a19" opacity=".16"/><rect x="1360" y="250.0" width="1070" height="2.1" fill="#322a19" opacity=".16"/><rect y="252.0" width="1536" height="2.1" fill="#30271c"/><rect x="-182" y="252.0" width="420" height="2.1" fill="#524947" opacity=".16"/><rect x="1354" y="252.0" width="420" height="2.1" fill="#524947" opacity=".16"/><rect y="254.0" width="1536" height="2.1" fill="#30271c"/><rect x="-166" y="254.0" width="550" height="2.1" fill="#3b2f1f" opacity=".16"/><rect x="1370" y="254.0" width="550" height="2.1" fill="#3b2f1f" opacity=".16"/><rect y="256.0" width="1536" height="2.1" fill="#413524"/><rect x="-896" y="256.0" width="680" height="2.1" fill="#3c312a" opacity=".16"/><rect x="640" y="256.0" width="680" height="2.1" fill="#3c312a" opacity=".16"/><rect y="258.0" width="1536" height="2.1" fill="#1e1812"/><rect x="-92" y="258.0" width="810" height="2.1" fill="#6d7078" opacity=".16"/><rect x="1444" y="258.0" width="810" height="2.1" fill="#6d7078" opacity=".16"/><rect y="260.0" width="1536" height="2.1" fill="#413524"/><rect x="-1098" y="260.0" width="940" height="2.1" fill="#7e6d69" opacity=".16"/><rect x="438" y="260.0" width="940" height="2.1" fill="#7e6d69" opacity=".16"/><rect y="262.0" width="1536" height="2.1" fill="#4f4234"/><rect x="-594" y="262.0" width="1070" height="2.1" fill="#372b20" opacity=".16"/><rect x="942" y="262.0" width="1070" height="2.1" fill="#372b20" opacity=".16"/><rect y="264.0" width="1536" height="2.1" fill="#413524"/><rect x="-492" y="264.0" width="420" height="2.1" fill="#5a5554" opacity=".16"/><rect x="1044" y="264.0" width="420" height="2.1" fill="#5a5554" opacity=".16"/><rect y="266.0" width="1536" height="2.1" fill="#1e1812"/><rect x="-648" y="266.0" width="550" height="2.1" fill="#65604d" opacity=".16"/><rect x="888" y="266.0" width="550" height="2.1" fill="#65604d" opacity=".16"/><rect y="268.0" width="1536" height="2.1" fill="#6d6157"/><rect x="-430" y="268.0" width="680" height="2.1" fill="#726460" opacity=".16"/><rect x="1106" y="268.0" width="680" height="2.1" fill="#726460" opacity=".16"/><rect y="270.0" width="1536" height="2.1" fill="#6d6157"/><rect x="-558" y="270.0" width="810" height="2.1" fill="#3b332f" opacity=".16"/><rect x="978" y="270.0" width="810" height="2.1" fill="#3b332f" opacity=".16"/><rect y="272.0" width="1536" height="2.1" fill="#807672"/><rect x="-696" y="272.0" width="940" height="2.1" fill="#786e6a" opacity=".16"/><rect x="840" y="272.0" width="940" height="2.1" fill="#786e6a" opacity=".16"/><rect y="274.0" width="1536" height="2.1" fill="#6d6157"/><rect x="-612" y="274.0" width="1070" height="2.1" fill="#64644f" opacity=".16"/><rect x="924" y="274.0" width="1070" height="2.1" fill="#64644f" opacity=".16"/><rect y="276.0" width="1536" height="2.1" fill="#6d6157"/><rect x="-674" y="276.0" width="420" height="2.1" fill="#81746e" opacity=".16"/><rect x="862" y="276.0" width="420" height="2.1" fill="#81746e" opacity=".16"/><rect y="278.0" width="1536" height="2.1" fill="#6d6157"/><rect x="-906" y="278.0" width="550" height="2.1" fill="#81726e" opacity=".16"/><rect x="630" y="278.0" width="550" height="2.1" fill="#81726e" opacity=".16"/><rect y="280.0" width="1536" height="2.1" fill="#30271c"/><rect x="-228" y="280.0" width="680" height="2.1" fill="#736b69" opacity=".16"/><rect x="1308" y="280.0" width="680" height="2.1" fill="#736b69" opacity=".16"/><rect y="282.0" width="1536" height="2.1" fill="#615140"/><rect x="-1248" y="282.0" width="810" height="2.1" fill="#c3c0bd" opacity=".16"/><rect x="288" y="282.0" width="810" height="2.1" fill="#c3c0bd" opacity=".16"/><rect y="284.0" width="1536" height="2.1" fill="#6d6157"/><rect x="-1478" y="284.0" width="940" height="2.1" fill="#4f4443" opacity=".16"/><rect x="58" y="284.0" width="940" height="2.1" fill="#4f4443" opacity=".16"/><rect y="286.0" width="1536" height="2.1" fill="#807672"/><rect x="-982" y="286.0" width="1070" height="2.1" fill="#82746e" opacity=".16"/><rect x="554" y="286.0" width="1070" height="2.1" fill="#82746e" opacity=".16"/><rect y="288.0" width="1536" height="2.1" fill="#4f4234"/><rect x="-368" y="288.0" width="420" height="2.1" fill="#6a6260" opacity=".16"/><rect x="1168" y="288.0" width="420" height="2.1" fill="#6a6260" opacity=".16"/><rect y="290.0" width="1536" height="2.1" fill="#615140"/><rect x="-1420" y="290.0" width="550" height="2.1" fill="#595438" opacity=".16"/><rect x="116" y="290.0" width="550" height="2.1" fill="#595438" opacity=".16"/><rect y="292.0" width="1536" height="2.1" fill="#807672"/><rect x="-410" y="292.0" width="680" height="2.1" fill="#494348" opacity=".16"/><rect x="1126" y="292.0" width="680" height="2.1" fill="#494348" opacity=".16"/><rect y="294.0" width="1536" height="2.1" fill="#30271c"/><rect x="-578" y="294.0" width="810" height="2.1" fill="#685e58" opacity=".16"/><rect x="958" y="294.0" width="810" height="2.1" fill="#685e58" opacity=".16"/><rect y="296.0" width="1536" height="2.1" fill="#1e1812"/><rect x="-1404" y="296.0" width="940" height="2.1" fill="#6a615e" opacity=".16"/><rect x="132" y="296.0" width="940" height="2.1" fill="#6a615e" opacity=".16"/><rect y="298.0" width="1536" height="2.1" fill="#807672"/><rect x="-1112" y="298.0" width="1070" height="2.1" fill="#7a7168" opacity=".16"/><rect x="424" y="298.0" width="1070" height="2.1" fill="#7a7168" opacity=".16"/><rect y="300.0" width="1536" height="2.1" fill="#6d6157"/><rect x="-510" y="300.0" width="420" height="2.1" fill="#886c66" opacity=".16"/><rect x="1026" y="300.0" width="420" height="2.1" fill="#886c66" opacity=".16"/><rect y="302.0" width="1536" height="2.1" fill="#4f4234"/><rect x="-1150" y="302.0" width="550" height="2.1" fill="#524a47" opacity=".16"/><rect x="386" y="302.0" width="550" height="2.1" fill="#524a47" opacity=".16"/><rect y="304.0" width="1536" height="2.1" fill="#6d6157"/><rect x="-1448" y="304.0" width="680" height="2.1" fill="#6e6562" opacity=".16"/><rect x="88" y="304.0" width="680" height="2.1" fill="#6e6562" opacity=".16"/><rect y="306.0" width="1536" height="2.1" fill="#807672"/><rect x="-1524" y="306.0" width="810" height="2.1" fill="#7e7561" opacity=".16"/><rect x="12" y="306.0" width="810" height="2.1" fill="#7e7561" opacity=".16"/><rect y="308.0" width="1536" height="2.1" fill="#6d6157"/><rect x="-242" y="308.0" width="940" height="2.1" fill="#5d5452" opacity=".16"/><rect x="1294" y="308.0" width="940" height="2.1" fill="#5d5452" opacity=".16"/><rect y="310.0" width="1536" height="2.1" fill="#807672"/><rect x="-666" y="310.0" width="1070" height="2.1" fill="#544838" opacity=".16"/><rect x="870" y="310.0" width="1070" height="2.1" fill="#544838" opacity=".16"/><rect y="312.0" width="1536" height="2.1" fill="#807672"/><rect x="-116" y="312.0" width="420" height="2.1" fill="#4e502d" opacity=".16"/><rect x="1420" y="312.0" width="420" height="2.1" fill="#4e502d" opacity=".16"/><rect y="314.0" width="1536" height="2.1" fill="#807672"/><rect x="-1040" y="314.0" width="550" height="2.1" fill="#756e6f" opacity=".16"/><rect x="496" y="314.0" width="550" height="2.1" fill="#756e6f" opacity=".16"/><rect y="316.0" width="1536" height="2.1" fill="#6d6157"/><rect x="-278" y="316.0" width="680" height="2.1" fill="#434248" opacity=".16"/><rect x="1258" y="316.0" width="680" height="2.1" fill="#434248" opacity=".16"/><rect y="318.0" width="1536" height="2.1" fill="#807672"/><rect x="-326" y="318.0" width="810" height="2.1" fill="#c4a583" opacity=".16"/><rect x="1210" y="318.0" width="810" height="2.1" fill="#c4a583" opacity=".16"/><rect y="320.0" width="1536" height="2.1" fill="#6d6157"/><rect x="-864" y="320.0" width="940" height="2.1" fill="#604f3d" opacity=".16"/><rect x="672" y="320.0" width="940" height="2.1" fill="#604f3d" opacity=".16"/><rect y="322.0" width="1536" height="2.1" fill="#92867d"/><rect x="-892" y="322.0" width="1070" height="2.1" fill="#988e89" opacity=".16"/><rect x="644" y="322.0" width="1070" height="2.1" fill="#988e89" opacity=".16"/><rect y="324.0" width="1536" height="2.1" fill="#92867d"/><rect x="-810" y="324.0" width="420" height="2.1" fill="#8f817d" opacity=".16"/><rect x="726" y="324.0" width="420" height="2.1" fill="#8f817d" opacity=".16"/><rect y="326.0" width="1536" height="2.1" fill="#92867d"/><rect x="-434" y="326.0" width="550" height="2.1" fill="#695a47" opacity=".16"/><rect x="1102" y="326.0" width="550" height="2.1" fill="#695a47" opacity=".16"/><rect y="328.0" width="1536" height="2.1" fill="#b79a7a"/><rect x="-716" y="328.0" width="680" height="2.1" fill="#a39795" opacity=".16"/><rect x="820" y="328.0" width="680" height="2.1" fill="#a39795" opacity=".16"/><rect y="330.0" width="1536" height="2.1" fill="#92867d"/><rect x="-808" y="330.0" width="810" height="2.1" fill="#8d827f" opacity=".16"/><rect x="728" y="330.0" width="810" height="2.1" fill="#8d827f" opacity=".16"/><rect y="332.0" width="1536" height="2.1" fill="#92867d"/><rect x="-334" y="332.0" width="940" height="2.1" fill="#7d6e6c" opacity=".16"/><rect x="1202" y="332.0" width="940" height="2.1" fill="#7d6e6c" opacity=".16"/><rect y="334.0" width="1536" height="2.1" fill="#92867d"/><rect x="-462" y="334.0" width="1070" height="2.1" fill="#958882" opacity=".16"/><rect x="1074" y="334.0" width="1070" height="2.1" fill="#958882" opacity=".16"/><rect y="336.0" width="1536" height="2.1" fill="#807672"/><rect x="-152" y="336.0" width="420" height="2.1" fill="#a29899" opacity=".16"/><rect x="1384" y="336.0" width="420" height="2.1" fill="#a29899" opacity=".16"/><rect y="338.0" width="1536" height="2.1" fill="#92867d"/><rect x="-324" y="338.0" width="550" height="2.1" fill="#8d827f" opacity=".16"/><rect x="1212" y="338.0" width="550" height="2.1" fill="#8d827f" opacity=".16"/><rect y="340.0" width="1536" height="2.1" fill="#92867d"/><rect x="-194" y="340.0" width="680" height="2.1" fill="#8e8480" opacity=".16"/><rect x="1342" y="340.0" width="680" height="2.1" fill="#8e8480" opacity=".16"/><rect y="342.0" width="1536" height="2.1" fill="#92867d"/><rect x="-490" y="342.0" width="810" height="2.1" fill="#928784" opacity=".16"/><rect x="1046" y="342.0" width="810" height="2.1" fill="#928784" opacity=".16"/><rect y="344.0" width="1536" height="2.1" fill="#a8a3a1"/><rect x="-964" y="344.0" width="940" height="2.1" fill="#a19898" opacity=".16"/><rect x="572" y="344.0" width="940" height="2.1" fill="#a19898" opacity=".16"/><rect y="346.0" width="1536" height="2.1" fill="#92867d"/><rect x="-1280" y="346.0" width="1070" height="2.1" fill="#c1aa96" opacity=".16"/><rect x="256" y="346.0" width="1070" height="2.1" fill="#c1aa96" opacity=".16"/><rect y="348.0" width="1536" height="2.1" fill="#807672"/><rect x="-38" y="348.0" width="420" height="2.1" fill="#827876" opacity=".16"/><rect x="1498" y="348.0" width="420" height="2.1" fill="#827876" opacity=".16"/><rect y="350.0" width="1536" height="2.1" fill="#807672"/><rect x="-182" y="350.0" width="550" height="2.1" fill="#807775" opacity=".16"/><rect x="1354" y="350.0" width="550" height="2.1" fill="#807775" opacity=".16"/><rect y="352.0" width="1536" height="2.1" fill="#92867d"/><rect x="-1360" y="352.0" width="680" height="2.1" fill="#807675" opacity=".16"/><rect x="176" y="352.0" width="680" height="2.1" fill="#807675" opacity=".16"/><rect y="354.0" width="1536" height="2.1" fill="#807672"/><rect x="-1260" y="354.0" width="810" height="2.1" fill="#837a79" opacity=".16"/><rect x="276" y="354.0" width="810" height="2.1" fill="#837a79" opacity=".16"/><rect y="356.0" width="1536" height="2.1" fill="#807672"/><rect x="-506" y="356.0" width="940" height="2.1" fill="#867a79" opacity=".16"/><rect x="1030" y="356.0" width="940" height="2.1" fill="#867a79" opacity=".16"/><rect y="358.0" width="1536" height="2.1" fill="#807672"/><rect x="-482" y="358.0" width="1070" height="2.1" fill="#817876" opacity=".16"/><rect x="1054" y="358.0" width="1070" height="2.1" fill="#817876" opacity=".16"/></svg>