<svg xmlns="http://www.w3.org/2000/svg" width="1536" height="360" viewBox="0 0 1536 360" preserveAspectRatio="none"><rect y="0.0" width="1536" height="2.1" fill="#e1eaf2"/><rect y="2.0" width="1536" height="2.1" fill="#f0f8fd"/><rect y="4.0" width="1536" height="2.1" fill="#f0f8fd"/><rect y="6.0" width="1536" height="2.1" fill="#f0f8fd"/><rect y="8.0" width="1536" height="2.1" fill="#e1eaf2"/><rect y="10.0" width="1536" height="2.1" fill="#f0f8fd"/><rect y="12.0" width="1536" height="2.1" fill="#f0f8fd"/><rect y="14.0" width="1536" height="2.1" fill="#f0f8fd"/><rect y="16.0" width="1536" height="2.1" fill="#e1eaf2"/><rect y="18.0" width="1536" height="2.1" fill="#f0f8fd"/><rect y="20.0" width="1536" height="2.1" fill="#f0f8fd"/><rect y="22.0" width="1536" height="2.1" fill="#f0f8fd"/><rect y="24.0" width="1536" height="2.1" fill="#e1eaf2"/><rect y="26.0" width="1536" height="2.1" fill="#f0f8fd"/><rect y="28.0" width="1536" height="2.1" fill="#f0f8fd"/><rect y="30.0" width="1536" height="2.1" fill="#f0f8fd"/><rect y="32.0" width="1536" height="2.1" fill="#e1eaf2"/><rect y="34.0" width="1536" height="2.1" fill="#f0f8fd"/><rect y="36.0" width="1536" height="2.1" fill="#f0f8fd"/><rect y="38.0" width="1536" height="2.1" fill="#f0f8fd"/><rect y="40.0" width="1536" height="2.1" fill="#e1eaf2"/><rect y="42.0" width="1536" height="2.1" fill="#f0f8fd"/><rect y="44.0" width="1536" height="2.1" fill="#f0f8fd"/><rect y="46.0" width="1536" height="2.1" fill="#f0f8fd"/><rect y="48.0" width="1536" height="2.1" fill="#e1eaf2"/><rect y="50.0" width="1536" height="2.1" fill="#f0f8fd"/><rect y="52.0" width="1536" height="2.1" fill="#f0f8fd"/><rect y="54.0" width="1536" height="2.1" fill="#f0f8fd"/><rect y="56.0" width="1536" height="2.1" fill="#e1eaf2"/><rect y="58.0" width="1536" height="2.1" fill="#f0f8fd"/><rect y="60.0" width="1536" height="2.1" fill="#f0f8fd"/><rect y="62.0" width="1536" height="2.1" fill="#f0f8fd"/><rect y="64.0" width="1536" height="2.1" fill="#f0f8fd"/><rect y="66.0" width="1536" height="2.1" fill="#e1eaf2"/><rect y="68.0" width="1536" height="2.1" fill="#e1eaf2"/><rect y="70.0" width="1536" height="2.1" fill="#e1eaf2"/><rect y="72.0" width="1536" height="2.1" fill="#f0f8fd"/><rect y="74.0" width="1536" height="2.1" fill="#e1eaf2"/><rect y="76.0" width="1536" height="2.1" fill="#e1eaf2"/><rect y="78.0" width="1536" height="2.1" fill="#e1eaf2"/><rect y="80.0" width="1536" height="2.1" fill="#f0f8fd"/><rect y="82.0" width="1536" height="2.1" fill="#e1eaf2"/><rect y="84.0" width="1536" height="2.1" fill="#e1eaf2"/><rect y="86.0" width="1536" height="2.1" fill="#e1eaf2"/><rect y="88.0" width="1536" height="2.1" fill="#f0f8fd"/><rect y="90.0" width="1536" height="2.1" fill="#e1eaf2"/><rect y="92.0" width="1536" height="2.1" fill="#e1eaf2"/><rect y="94.0" width="1536" height="2.1" fill="#e1eaf2"/><rect y="96.0" width="1536" height="2.1" fill="#c8ced4"/><rect y="98.0" width="1536" height="2.1" fill="#e1eaf2"/><rect y="100.0" width="1536" height="2.1" fill="#e1eaf2"/><rect y="102.0" width="1536" height="2.1" fill="#e1eaf2"/><rect y="104.0" width="1536" height="2.1" fill="#584e40"/><rect y="106.0" width="1536" height="2.1" fill="#e1eaf2"/><rect y="108.0" width="1536" height="2.1" fill="#e1eaf2"/><rect y="110.0" width="1536" height="2.1" fill="#e1eaf2"/><rect y="112.0" width="1536" height="2.1" fill="#584e40"/><rect y="114.0" width="1536" height="2.1" fill="#464239"/><rect y="116.0" width="1536" height="2.1" fill="#464239"/><rect y="118.0" width="1536" height="2.1" fill="#584e40"/><rect y="120.0" width="1536" height="2.1" fill="#584e40"/><rect y="122.0" width="1536" height="2.1" fill="#464239"/><rect y="124.0" width="1536" height="2.1" fill="#464239"/><rect y="126.0" width="1536" height="2.1" fill="#464239"/><rect y="128.0" width="1536" height="2.1" fill="#3f382c"/><rect y="130.0" width="1536" height="2.1" fill="#464239"/><rect y="132.0" width="1536" height="2.1" fill="#464239"/><rect y="134.0" width="1536" height="2.1" fill="#584e40"/><rect y="136.0" width="1536" height="2.1" fill="#3f382c"/><rect y="138.0" width="1536" height="2.1" fill="#584e40"/><rect y="140.0" width="1536" height="2.1" fill="#464239"/><rect y="142.0" width="1536" height="2.1" fill="#464239"/><rect y="144.0" width="1536" height="2.1" fill="#352f25"/><rect y="146.0" width="1536" height="2.1" fill="#584e40"/><rect y="148.0" width="1536" height="2.1" fill="#675b4b"/><rect y="150.0" width="1536" height="2.1" fill="#897e6e"/><rect y="152.0" width="1536" height="2.1" fill="#897e6e"/><rect y="154.0" width="1536" height="2.1" fill="#897e6e"/><rect y="156.0" width="1536" height="2.1" fill="#9d9587"/><rect y="158.0" width="1536" height="2.1" fill="#897e6e"/><rect y="160.0" width="1536" height="2.1" fill="#897e6e"/><rect y="162.0" width="1536" height="2.1" fill="#9d9587"/><rect y="164.0" width="1536" height="2.1" fill="#9d9587"/><rect y="166.0" width="1536" height="2.1" fill="#9d9587"/><rect y="168.0" width="1536" height="2.1" fill="#9d9587"/><rect y="170.0" width="1536" height="2.1" fill="#9d9587"/><rect y="172.0" width="1536" height="2.1" fill="#776b5a"/><rect y="174.0" width="1536" height="2.1" fill="#9d9587"/><rect y="176.0" width="1536" height="2.1" fill="#897e6e"/><rect y="178.0" width="1536" height="2.1" fill="#897e6e"/><rect y="180.0" width="1536" height="2.1" fill="#897e6e"/><rect y="182.0" width="1536" height="2.1" fill="#897e6e"/><rect y="184.0" width="1536" height="2.1" fill="#897e6e"/><rect y="186.0" width="1536" height="2.1" fill="#897e6e"/><rect y="188.0" width="1536" height="2.1" fill="#776b5a"/><rect y="190.0" width="1536" height="2.1" fill="#897e6e"/><rect y="192.0" width="1536" height="2.1" fill="#897e6e"/><rect y="194.0" width="1536" height="2.1" fill="#776b5a"/><rect y="196.0" width="1536" height="2.1" fill="#776b5a"/><rect y="198.0" width="1536" height="2.1" fill="#897e6e"/><rect y="200.0" width="1536" height="2.1" fill="#897e6e"/><rect y="202.0" width="1536" height="2.1" fill="#776b5a"/><rect y="204.0" width="1536" height="2.1" fill="#584e40"/><rect y="206.0" width="1536" height="2.1" fill="#352f25"/><rect y="208.0" width="1536" height="2.1" fill="#352f25"/><rect y="210.0" width="1536" height="2.1" fill="#2c271e"/><rect y="212.0" width="1536" height="2.1" fill="#2c271e"/><rect y="214.0" width="1536" height="2.1" fill="#201d16"/><rect y="216.0" width="1536" height="2.1" fill="#2c271e"/><rect y="218.0" width="1536" height="2.1" fill="#201d16"/><rect y="220.0" width="1536" height="2.1" fill="#201d16"/><rect y="222.0" width="1536" height="2.1" fill="#201d16"/><rect y="224.0" width="1536" height="2.1" fill="#675b4b"/><rect y="226.0" width="1536" height="2.1" fill="#12100b"/><rect y="228.0" width="1536" height="2.1" fill="#12100b"/><rect y="230.0" width="1536" height="2.1" fill="#12100b"/><rect y="232.0" width="1536" height="2.1" fill="#675b4b"/><rect y="234.0" width="1536" height="2.1" fill="#12100b"/><rect y="236.0" width="1536" height="2.1" fill="#12100b"/><rect y="238.0" width="1536" height="2.1" fill="#12100b"/><rect y="240.0" width="1536" height="2.1" fill="#584e40"/><rect y="242.0" width="1536" height="2.1" fill="#12100b"/><rect y="244.0" width="1536" height="2.1" fill="#12100b"/><rect y="246.0" width="1536" height="2.1" fill="#12100b"/><rect y="248.0" width="1536" height="2.1" fill="#584e40"/><rect y="250.0" width="1536" height="2.1" fill="#12100b"/><rect y="252.0" width="1536" height="2.1" fill="#12100b"/><rect y="254.0" width="1536" height="2.1" fill="#12100b"/><rect y="256.0" width="1536" height="2.1" fill="#675b4b"/><rect y="258.0" width="1536" height="2.1" fill="#12100b"/><rect y="260.0" width="1536" height="2.1" fill="#12100b"/><rect y="262.0" width="1536" height="2.1" fill="#12100b"/><rect y="264.0" width="1536" height="2.1" fill="#3f382c"/><rect y="266.0" width="1536" height="2.1" fill="#12100b"/><rect y="268.0" width="1536" height="2.1" fill="#12100b"/><rect y="270.0" width="1536" height="2.1" fill="#12100b"/><rect y="272.0" width="1536" height="2.1" fill="#12100b"/><rect y="274.0" width="1536" height="2.1" fill="#3f382c"/><rect y="276.0" width="1536" height="2.1" fill="#51432f"/><rect y="278.0" width="1536" height="2.1" fill="#51432f"/><rect y="280.0" width="1536" height="2.1" fill="#3f382c"/><rect y="282.0" width="1536" height="2.1" fill="#51432f"/><rect y="284.0" width="1536" height="2.1" fill="#51432f"/><rect y="286.0" width="1536" height="2.1" fill="#51432f"/><rect y="288.0" width="1536" height="2.1" fill="#352f25"/><rect y="290.0" width="1536" height="2.1" fill="#51432f"/><rect y="292.0" width="1536" height="2.1" fill="#3f382c"/><rect y="294.0" width="1536" height="2.1" fill="#51432f"/><rect y="296.0" width="1536" height="2.1" fill="#51432f"/><rect y="298.0" width="1536" height="2.1" fill="#675b4b"/><rect y="300.0" width="1536" height="2.1" fill="#675b4b"/><rect y="302.0" width="1536" height="2.1" fill="#675b4b"/><rect y="304.0" width="1536" height="2.1" fill="#675b4b"/><rect y="306.0" width="1536" height="2.1" fill="#675b4b"/><rect y="308.0" width="1536" height="2.1" fill="#51432f"/><rect y="310.0" width="1536" height="2.1" fill="#675b4b"/><rect y="312.0" width="1536" height="2.1" fill="#51432f"/><rect y="314.0" width="1536" height="2.1" fill="#2c271e"/><rect y="316.0" width="1536" height="2.1" fill="#201d16"/><rect y="318.0" width="1536" height="2.1" fill="#2c271e"/><rect y="320.0" width="1536" height="2.1" fill="#201d16"/><rect y="322.0" width="1536" height="2.1" fill="#2c271e"/><rect y="324.0" width="1536" height="2.1" fill="#2c271e"/><rect y="326.0" width="1536" height="2.1" fill="#584e40"/><rect y="328.0" width="1536" height="2.1" fill="#3f382c"/><rect y="330.0" width="1536" height="2.1" fill="#352f25"/><rect y="332.0" width="1536" height="2.1" fill="#352f25"/><rect y="334.0" width="1536" height="2.1" fill="#3f382c"/><rect y="336.0" width="1536" height="2.1" fill="#2c271e"/><rect y="338.0" width="1536" height="2.1" fill="#3f382c"/><rect y="340.0" width="1536" height="2.1" fill="#352f25"/><rect y="342.0" width="1536" height="2.1" fill="#2c271e"/><rect y="344.0" width="1536" height="2.1" fill="#2c271e"/><rect y="346.0" width="1536" height="2.1" fill="#352f25"/><rect y="348.0" width="1536" height="2.1" fill="#352f25"/><rect y="350.0" width="1536" height="2.1" fill="#3f382c"/><rect y="352.0" width="1536" height="2.1" fill="#352f25"/><rect y="354.0" width="1536" height="2.1" fill="#3f382c"/><rect y="356.0" width="1536" height="2.1" fill="#3f382c"/><rect y="358.0" width="1536" height="2.1" fill="#3f382c"/></svg>